<svg width="100" height="24" viewBox="0 0 100 24" fill="none" xmlns="http://www.w3.org/2000/svg">
<path d="M5.33501 18.3982C5.7995 19.2973 6.26515 20.1957 6.72964 21.0948C6.87039 21.3674 6.96499 21.6791 7.16079 21.9032C7.35737 22.1281 7.65359 22.2653 7.90599 22.4418C7.96105 22.4801 8.01455 22.5212 8.06961 22.5596C8.30031 22.7205 8.53139 22.8807 8.77178 23.0478C8.77449 23.0144 8.77953 23.002 8.77527 22.9939C8.01262 21.4488 7.24958 19.9041 6.48422 18.3606L6.05772 17.4502L5.90759 17.3439C5.36192 16.9574 4.83473 16.584 4.30754 16.2103L4.20674 16.187L5.27297 18.2807C5.29236 18.3195 5.32027 18.3695 5.33501 18.3986V18.3982Z" fill="#2548A0"/>
<path d="M1.2015 16.8388C2.37475 16.1738 3.54102 15.4957 4.72551 14.8509C5.02367 14.6885 5.17527 14.5225 5.1268 14.1736C5.09423 13.9406 5.1206 13.6994 5.1206 13.4412C5.07058 13.4656 5.04034 13.4772 5.0132 13.4935C4.03342 14.0801 3.05404 14.6672 2.07504 15.2553C2.04247 15.2747 2.0068 15.2991 1.98819 15.3305C1.69895 15.8276 1.41281 16.3266 1.10535 16.8601C1.17048 16.8458 1.18793 16.8461 1.20111 16.8384L1.2015 16.8388Z" fill="#2548A0"/>
<path d="M9.83802 13.2127C9.79645 13.2468 9.75876 13.2866 9.71278 13.3113C9.46657 13.4439 9.21804 13.5714 8.97107 13.7029C8.93268 13.7234 8.88266 13.7448 8.8656 13.7793C8.76402 13.9875 8.67097 14.1996 8.57249 14.4151H11.4901C10.9276 14.0057 10.393 13.6166 9.85882 13.2278L9.83802 13.2127Z" fill="#2548A0"/>
<path d="M6.39233 9.5213C6.38845 9.65468 6.43032 9.73067 6.54586 9.8024C7.57876 10.4418 8.60661 11.0889 9.63678 11.7325C9.65695 11.7449 9.68602 11.7429 9.73488 11.7519C9.73488 11.4021 9.72906 11.0668 9.73759 10.7318C9.74108 10.5999 9.70115 10.5243 9.58405 10.4534C8.9036 10.0416 8.23168 9.6159 7.55317 9.20182C7.18134 8.975 6.80137 8.76136 6.39504 8.52485C6.39504 8.87342 6.40124 9.19717 6.39194 9.52091L6.39233 9.5213Z" fill="#2548A0"/>
<path d="M11.587 7.99678C11.2656 7.99833 11.0159 8.25965 11.0128 8.59736C11.0101 8.91684 11.2831 9.19096 11.6006 9.18747C11.9162 9.18398 12.1884 8.90715 12.1868 8.59154C12.1849 8.25578 11.9224 7.99561 11.587 7.99678Z" fill="#2548A0"/>
<path d="M8.75782 2.65629C8.7551 2.7257 8.73455 2.80053 8.70121 2.8614C8.33675 3.52363 7.96842 4.18353 7.60047 4.84382C7.55549 4.92485 7.50664 5.00395 7.45934 5.08421L7.41785 5.15284C7.32867 5.31762 7.2616 5.47426 7.16583 5.60996L6.42606 7.01894L6.40977 8.3907C6.41016 8.42172 6.4563 8.46049 6.49003 8.48182C6.66877 8.59658 6.84906 8.70941 7.03168 8.81875C7.18134 8.90831 7.3341 8.99167 7.49152 9.08124V7.13216L7.54037 7.03212C7.62218 6.88169 7.68189 6.77041 7.74237 6.65952C8.09249 6.01746 8.44338 5.37578 8.79077 4.73216C8.81791 4.68175 8.83265 4.61817 8.83265 4.56078L8.84001 2.05959C8.89585 2.03205 9.01596 1.9537 9.04977 1.86065C9.08358 1.7676 9.06386 1.68361 9.04977 1.65326C9.01294 1.52221 8.91795 1.42334 8.78767 1.43109C8.69074 1.43691 8.56745 1.49506 8.51006 1.57106C8.36661 1.76104 8.47866 1.9739 8.76092 2.05959C8.76092 2.25461 8.76518 2.45081 8.75782 2.65165V2.65629Z" fill="#2548A0"/>
<path d="M9.49992 12.8511C8.93035 12.4851 8.3604 12.1194 7.79278 11.7503C7.64157 11.6522 7.49423 11.5983 7.30037 11.6045C6.65714 11.6243 6.01391 11.6041 5.3699 11.6045H3.98069V12.0779H2.97688C2.94935 11.9822 2.93152 11.8998 2.90205 11.8219V11.8209C2.75355 11.4266 2.30496 11.2048 1.88506 11.3153C1.49346 11.4184 1.25152 11.8139 1.31782 12.2419C1.38257 12.6607 1.75362 12.9728 2.16305 12.9538C2.51317 12.9375 2.828 12.6719 2.93966 12.3086C2.95594 12.2551 3.0079 12.1725 3.0459 12.1714C3.35181 12.1601 3.65811 12.1652 3.97449 12.1652V13.0224L5.19271 12.5866H8.39995H8.43291C7.84551 12.9282 7.23717 13.3055 6.64706 13.6486L6.4943 13.7249L7.48997 14.324C8.13475 13.9642 8.77914 13.6032 9.42548 13.2461L9.83762 13.1046L9.49992 12.8511Z" fill="#2548A0"/>
<path d="M6.37178 14.1864C6.36829 14.4213 6.38418 14.6563 6.3772 14.8909C6.35859 15.5159 6.33184 16.1405 6.30819 16.776C6.69669 15.9749 7.07743 15.1906 7.45623 14.4097H7.45585L6.37178 13.8025V14.1864Z" fill="#2548A0"/>
<path d="M10.6452 7.1814C10.6499 6.2245 10.6511 5.26799 10.6515 4.31109C10.6515 4.28317 10.6387 4.25526 10.6294 4.21843C10.3308 4.72169 10.0373 5.20983 9.75116 5.70185C9.46735 6.18999 9.21068 6.69519 8.90321 7.16783C8.73339 7.42876 8.62677 7.67846 8.6605 7.98941L8.74308 8.27745L8.86754 8.0371C8.9827 7.78935 9.10677 7.54586 9.23239 7.30314C9.33242 7.10967 9.43788 6.9193 9.54334 6.72931C9.56157 6.69636 9.58754 6.6603 9.61934 6.64324C9.93727 6.47109 10.2568 6.30282 10.5914 6.12524V6.30088V7.28876L10.6452 7.1814Z" fill="#2548A0"/>
<path d="M10.4882 7.30314C10.211 7.2066 9.93378 7.29384 9.79691 7.52143C9.63407 7.79167 9.68254 8.13752 9.91245 8.34805C10.1075 8.52679 10.4363 8.54347 10.6569 8.38644C11.0432 8.11178 11.0165 7.63661 10.5991 7.33862L10.4882 7.30314Z" fill="#2548A0"/>
<path d="M17.8829 18.3982C17.4184 19.2973 16.9527 20.1957 16.4882 21.0948C16.3475 21.3674 16.2529 21.6791 16.0571 21.9032C15.8605 22.1281 15.5643 22.2653 15.3119 22.4418C15.2568 22.4801 15.2033 22.5212 15.1483 22.5596C14.9176 22.7205 14.6865 22.8807 14.4461 23.0478C14.4434 23.0144 14.4383 23.002 14.4426 22.9939C15.2053 21.4488 15.9683 19.9041 16.7337 18.3606L17.1602 17.4502L17.3103 17.3439C17.856 16.9574 18.3831 16.584 18.9103 16.2103L19.0111 16.187L17.9449 18.2807C17.9255 18.3195 17.8976 18.3695 17.8829 18.3986V18.3982Z" fill="#2548A0"/>
<path d="M22.0164 16.8388C20.8431 16.1738 19.6769 15.4957 18.4924 14.8509C18.1942 14.6885 18.0426 14.5225 18.0911 14.1736C18.1236 13.9406 18.0973 13.6994 18.0973 13.4412C18.1473 13.4656 18.1775 13.4772 18.2047 13.4935C19.1844 14.0801 20.1638 14.6672 21.1428 15.2553C21.1754 15.2747 21.2111 15.2991 21.2297 15.3305C21.5189 15.8276 21.8051 16.3266 22.1125 16.8601C22.0474 16.8458 22.0299 16.8462 22.0168 16.8384L22.0164 16.8388Z" fill="#2548A0"/>
<path d="M13.3799 13.2127C13.4214 13.2468 13.4591 13.2866 13.5051 13.3113C13.7513 13.4439 13.9998 13.5715 14.2468 13.7029C14.2852 13.7234 14.3352 13.7448 14.3523 13.7793C14.4539 13.9875 14.5469 14.1996 14.6454 14.4151H11.7278C12.2903 14.0057 12.8249 13.6166 13.3591 13.2278L13.3799 13.2127Z" fill="#2548A0"/>
<path d="M16.8255 9.52131C16.8294 9.65468 16.7875 9.73068 16.672 9.8024C15.6391 10.4418 14.6113 11.0889 13.5811 11.7325C13.5609 11.7449 13.5318 11.743 13.483 11.7519C13.483 11.4021 13.4888 11.0668 13.4803 10.7318C13.4768 10.5999 13.5167 10.5243 13.6338 10.4534C14.3143 10.0416 14.9862 9.61591 15.6647 9.20182C16.0365 8.97501 16.4165 8.76137 16.8228 8.52486C16.8228 8.87342 16.8166 9.19717 16.8259 9.52092L16.8255 9.52131Z" fill="#2548A0"/>
<path d="M14.4601 2.6563C14.4628 2.7257 14.4833 2.80053 14.5167 2.8614C14.8811 3.52363 15.2495 4.18354 15.6174 4.84383C15.6624 4.92486 15.7112 5.00396 15.7585 5.08421L15.8 5.15284C15.8892 5.31762 15.9563 5.47426 16.052 5.60997L16.7918 7.01895L16.8081 8.39071C16.8077 8.42173 16.7616 8.4605 16.7278 8.48182C16.5491 8.59659 16.3688 8.70942 16.1862 8.81875C16.0365 8.90832 15.8838 8.99168 15.7264 9.08124V7.13216L15.6775 7.03213C15.5957 6.88169 15.536 6.77042 15.4755 6.65953C15.1254 6.01746 14.7745 5.37578 14.4271 4.73216C14.4 4.68176 14.3852 4.61817 14.3852 4.56079L14.3779 2.05959C14.322 2.03205 14.2019 1.95371 14.1681 1.86066C14.1343 1.7676 14.154 1.68362 14.1681 1.65326C14.2049 1.52221 14.2999 1.42334 14.4302 1.4311C14.5271 1.43691 14.6504 1.49507 14.7078 1.57106C14.8513 1.76105 14.7392 1.97391 14.457 2.05959C14.457 2.25462 14.4527 2.45081 14.4601 2.65165V2.6563Z" fill="#2548A0"/>
<path d="M13.718 12.8511C14.2875 12.4851 14.8575 12.1194 15.4251 11.7503C15.5763 11.6522 15.7236 11.5983 15.9175 11.6045C16.5607 11.6243 17.204 11.6042 17.848 11.6045H19.2372V12.0779H20.241C20.2685 11.9822 20.2864 11.8998 20.3158 11.8219V11.8209C20.4643 11.4266 20.9129 11.2048 21.3328 11.3153C21.7244 11.4184 21.9664 11.8139 21.9001 12.242C21.8353 12.6607 21.4643 12.9728 21.0548 12.9538C20.7047 12.9375 20.3899 12.6719 20.2782 12.3086C20.2619 12.2551 20.21 12.1726 20.172 12.1714C19.8661 12.1601 19.5598 12.1652 19.2434 12.1652V13.0224L18.0252 12.5866H14.8179H14.7722C15.3596 12.9282 15.9807 13.3055 16.5708 13.6486L16.7236 13.725L15.7279 14.324C15.0831 13.9642 14.4387 13.6032 13.7924 13.2462L13.3802 13.1046L13.718 12.8511Z" fill="#2548A0"/>
<path d="M16.8461 14.1864C16.8496 14.4213 16.8337 14.6563 16.8407 14.8909C16.8593 15.5159 16.886 16.1405 16.9097 16.776C16.5212 15.9749 16.1404 15.1906 15.7616 14.4097H15.762L16.8461 13.8025V14.1864Z" fill="#2548A0"/>
<path d="M12.5726 7.1814C12.568 6.22451 12.5668 5.268 12.5664 4.3111C12.5664 4.28318 12.5792 4.25526 12.5885 4.21843C12.8871 4.72169 13.1806 5.20984 13.4667 5.70186C13.7505 6.19 14.0072 6.6952 14.3147 7.16783C14.4845 7.42877 14.5911 7.67846 14.5574 7.98942L14.4748 8.27746L14.3503 8.03711C14.2352 7.78935 14.1111 7.54586 13.9855 7.30315C13.8855 7.10967 13.78 6.9193 13.6745 6.72932C13.6563 6.69636 13.6303 6.6603 13.5985 6.64325C13.2806 6.4711 12.9611 6.30283 12.6265 6.12525V6.30089V7.28877L12.5726 7.1814Z" fill="#2548A0"/>
<path d="M12.7297 7.30315C13.0069 7.20661 13.2841 7.29384 13.421 7.52144C13.5838 7.79168 13.5353 8.13753 13.3054 8.34806C13.1104 8.5268 12.7816 8.54347 12.561 8.38644C12.1747 8.11179 12.2014 7.63662 12.6188 7.33863L12.7297 7.30315Z" fill="#2548A0"/>
<path d="M11.3408 19.2888C10.5452 18.7068 9.82405 18.1756 9.03116 17.5902C8.89158 17.4871 8.7489 17.387 8.61746 17.2742C8.56977 17.2331 8.52402 17.1587 8.52363 17.0993L8.53371 14.4838V14.4834L11.5607 16.7372L11.5215 19.4275L11.3408 19.2888Z" fill="#2548A0"/>
<path d="M11.8247 19.2888C12.6203 18.7068 13.3938 18.1757 14.1867 17.5902C14.3263 17.4871 14.469 17.387 14.6004 17.2742C14.6481 17.2331 14.6939 17.1587 14.6942 17.0993L14.6842 14.4838V14.4834L11.6704 16.7372L11.6312 19.4275L11.8247 19.2888Z" fill="#2548A0"/>
<path d="M11.6006 9.32429L9.91245 13.1046L10.8368 12.6587L11.587 10.7318L12.3489 12.6587L13.3054 13.1046L11.6006 9.32429Z" fill="#2548A0"/>
<path d="M27.4258 17L30.2338 8.36H32.0398L34.8478 17H33.5458L30.9598 9.116H31.2838L28.7278 17H27.4258ZM28.8838 15.05V13.874H33.3958V15.05H28.8838ZM38.8042 17V8.36H40.0762L44.3302 14.78V8.36H45.6022V17H44.3302L40.0762 10.574V17H38.8042ZM49.5569 17L52.3649 8.36H54.1709L56.9789 17H55.6769L53.0909 9.116H53.4149L50.8589 17H49.5569ZM51.0149 15.05V13.874H55.5269V15.05H51.0149ZM60.9353 17V8.36H62.2073L66.4613 14.78V8.36H67.7333V17H66.4613L62.2073 10.574V17H60.9353ZM75.42 17.18C74.8 17.18 74.24 17.074 73.74 16.862C73.244 16.646 72.834 16.34 72.51 15.944C72.19 15.544 71.982 15.07 71.886 14.522L73.194 14.324C73.326 14.852 73.602 15.264 74.022 15.56C74.442 15.852 74.932 15.998 75.492 15.998C75.84 15.998 76.16 15.944 76.452 15.836C76.744 15.724 76.978 15.566 77.154 15.362C77.334 15.154 77.424 14.906 77.424 14.618C77.424 14.462 77.396 14.324 77.34 14.204C77.288 14.084 77.214 13.98 77.118 13.892C77.026 13.8 76.912 13.722 76.776 13.658C76.644 13.59 76.498 13.532 76.338 13.484L74.124 12.83C73.908 12.766 73.688 12.684 73.464 12.584C73.24 12.48 73.034 12.346 72.846 12.182C72.662 12.014 72.512 11.808 72.396 11.564C72.28 11.316 72.222 11.016 72.222 10.664C72.222 10.132 72.358 9.682 72.63 9.314C72.906 8.942 73.278 8.662 73.746 8.474C74.214 8.282 74.738 8.186 75.318 8.186C75.902 8.194 76.424 8.298 76.884 8.498C77.348 8.698 77.732 8.986 78.036 9.362C78.344 9.734 78.556 10.186 78.672 10.718L77.328 10.946C77.268 10.622 77.14 10.344 76.944 10.112C76.748 9.876 76.508 9.696 76.224 9.572C75.94 9.444 75.632 9.378 75.3 9.374C74.98 9.366 74.686 9.414 74.418 9.518C74.154 9.622 73.942 9.768 73.782 9.956C73.626 10.144 73.548 10.36 73.548 10.604C73.548 10.844 73.618 11.038 73.758 11.186C73.898 11.334 74.07 11.452 74.274 11.54C74.482 11.624 74.688 11.694 74.892 11.75L76.488 12.2C76.688 12.256 76.914 12.332 77.166 12.428C77.422 12.52 77.668 12.65 77.904 12.818C78.144 12.986 78.342 13.21 78.498 13.49C78.654 13.766 78.732 14.114 78.732 14.534C78.732 14.97 78.644 15.354 78.468 15.686C78.292 16.014 78.05 16.29 77.742 16.514C77.438 16.734 77.086 16.9 76.686 17.012C76.286 17.124 75.864 17.18 75.42 17.18ZM82.8906 17V8.36H88.4106V9.542H84.1446V11.966H87.6906V13.148H84.1446V15.818H88.4106V17H82.8906ZM92.7316 17V8.36H98.2516V9.542H93.9856V11.966H97.5316V13.148H93.9856V15.818H98.2516V17H92.7316Z" fill="#2548A0"/>
</svg>
